<svg xmlns="http://www.w3.org/2000/svg" viewBox="0 0 366.96 366.96"><g><g fill-rule="evenodd"><path d="M183.48 0C83.41 0 2 80.15.05 179.74c68.88 25.17 134.41 13.09 198.14-30.85C160.25 161.27 98 180.22 59.65 162.25a137.72 137.72 0 0 1 237.5-84.75c-33.89 93.39-178.88 191-285.69 169.91a183.86 183.86 0 0 0 48.59 71.82c99.88-37.5 218.79-125 241.38-237.15a132 132 0 0 1 10 13.18v.1A137.73 137.73 0 0 1 197 309.78c-3.12 0-6.23-.12-9.3-.32q63.5-62.85 102.71-168.66C238 228 164.33 301.35 61.85 320.83A182.8 182.8 0 0 0 183.48 367C284.79 367 367 284.79 367 183.48a182.6 182.6 0 0 0-39.5-113.65 183.06 183.06 0 0 0-16.74-18.46v.09c-3-3-6.2-5.92-9.78-8.85A182.71 182.71 0 0 0 183.48 0z" fill="#1b75bb"/><path d="M0 183.48v-2.52c84.32 42.09 160.58 12.39 241.85-44.21C179.46 206.62 103 245.36 10.93 246A183.05 183.05 0 0 1 0 183.48z" fill="#26a9e0"/></g></g></svg>